<svg data-v-d3f97b9e="" xmlns="http://www.w3.org/2000/svg" viewBox="0 0 841.9717685553446 163"><!----><linearGradient data-v-d3f97b9e="" gradientTransform="rotate(25)" id="a4ff1da0-f072-4961-88b9-cf92052033ca" x1="0%" y1="0%" x2="100%" y2="0%"><stop data-v-d3f97b9e="" offset="0%" style="stop-color: rgb(32, 72, 79); stop-opacity: 1;"></stop><stop data-v-d3f97b9e="" offset="100%" style="stop-color: rgb(78, 155, 171); stop-opacity: 1;"></stop></linearGradient><!----><g data-v-d3f97b9e="" id="5a5a3d74-88f3-4aad-ab2b-a90c25b50e40" fill="#ffffff" transform="matrix(4.694835428506443,0,0,4.694835428506443,-3.474167144261628,93.32864262377748)"><path d="M0.74 12.29L0.74 2.69L3.26 2.69L4.45 7.98L4.45 7.98Q4.54 8.37 4.66 9.13L4.66 9.13L4.66 9.13Q4.79 9.90 4.83 10.15L4.83 10.15L4.89 10.15L4.89 10.15Q4.91 9.88 5.02 9.11L5.02 9.11L5.02 9.11Q5.12 8.33 5.21 7.98L5.21 7.98L6.38 2.69L8.82 2.69L8.82 12.29L7.17 12.29L7.17 6.17L7.17 6.17Q7.17 5.75 7.20 5.28L7.20 5.28L7.20 5.28Q7.22 4.82 7.24 4.63L7.24 4.63L7.18 4.63L6.85 6.15L5.50 12.29L3.95 12.29L2.59 6.12L2.25 4.63L2.20 4.63L2.20 4.63Q2.21 4.82 2.24 5.29L2.24 5.29L2.24 5.29Q2.27 5.77 2.27 6.17L2.27 6.17L2.27 12.29L0.74 12.29ZM12.88 12.46L12.88 12.46Q11.44 12.46 10.72 11.52L10.72 11.52L10.72 11.52Q10.00 10.57 10.00 8.61L10.00 8.61L10.00 8.61Q10.00 4.76 12.82 4.76L12.82 4.76L12.82 4.76Q14.17 4.76 14.83 5.70L14.83 5.70L14.83 5.70Q15.48 6.64 15.48 8.61L15.48 8.61L15.48 9.03L11.75 9.03L11.75 9.03Q11.76 10.07 12.02 10.58L12.02 10.58L12.02 10.58Q12.28 11.09 12.88 11.09L12.88 11.09L12.88 11.09Q13.31 11.09 13.57 10.72L13.57 10.72L13.57 10.72Q13.82 10.35 13.82 9.69L13.82 9.69L15.48 9.69L15.48 9.69Q15.48 11.06 14.77 11.76L14.77 11.76L14.77 11.76Q14.06 12.46 12.88 12.46L12.88 12.46ZM11.76 7.81L13.72 7.81L13.72 7.81Q13.72 6.13 12.82 6.13L12.82 6.13L12.82 6.13Q12.31 6.13 12.05 6.56L12.05 6.56L12.05 6.56Q11.80 6.99 11.76 7.81L11.76 7.81ZM18.89 12.46L18.89 12.46Q17.77 12.46 17.14 11.50L17.14 11.50L17.14 11.50Q16.52 10.54 16.52 8.60L16.52 8.60L16.52 8.60Q16.52 6.68 17.14 5.72L17.14 5.72L17.14 5.72Q17.77 4.76 18.80 4.76L18.80 4.76L18.80 4.76Q19.36 4.76 19.80 5.00L19.80 5.00L19.80 5.00Q20.24 5.25 20.44 5.68L20.44 5.68L20.51 5.68L20.51 2.17L22.19 2.17L22.19 12.29L20.79 12.29L20.62 11.38L20.55 11.38L20.55 11.38Q20.29 11.91 19.85 12.19L19.85 12.19L19.85 12.19Q19.42 12.46 18.89 12.46L18.89 12.46ZM19.39 10.93L19.39 10.93Q19.98 10.93 20.24 10.42L20.24 10.42L20.24 10.42Q20.51 9.91 20.51 8.88L20.51 8.88L20.51 8.37L20.51 8.37Q20.51 7.34 20.24 6.81L20.24 6.81L20.24 6.81Q19.98 6.29 19.39 6.29L19.39 6.29L19.39 6.29Q18.80 6.29 18.54 6.80L18.54 6.80L18.54 6.80Q18.27 7.31 18.27 8.34L18.27 8.34L18.27 8.88L18.27 8.88Q18.27 9.91 18.54 10.42L18.54 10.42L18.54 10.42Q18.80 10.93 19.39 10.93L19.39 10.93ZM23.72 3.70L23.72 2.17L25.40 2.17L25.40 3.70L23.72 3.70ZM23.72 12.29L23.72 4.93L25.40 4.93L25.40 12.29L23.72 12.29ZM28.20 12.46L28.20 12.46Q27.51 12.46 26.93 11.99L26.93 11.99L26.93 11.99Q26.35 11.52 26.35 10.39L26.35 10.39L26.35 10.39Q26.35 8.99 27.30 8.40L27.30 8.40L27.30 8.40Q28.25 7.81 30.00 7.81L30.00 7.81L30.00 7.04L30.00 7.04Q30.00 6.61 29.84 6.37L29.84 6.37L29.84 6.37Q29.68 6.13 29.23 6.13L29.23 6.13L29.23 6.13Q28.77 6.13 28.56 6.36L28.56 6.36L28.56 6.36Q28.35 6.59 28.35 6.90L28.35 6.90L28.35 7.11L26.71 7.11L26.71 7.11Q26.70 7.03 26.70 6.80L26.70 6.80L26.70 6.80Q26.70 5.88 27.38 5.32L27.38 5.32L27.38 5.32Q28.06 4.76 29.19 4.76L29.19 4.76L29.19 4.76Q30.45 4.76 31.07 5.32L31.07 5.32L31.07 5.32Q31.70 5.88 31.70 6.93L31.70 6.93L31.70 10.56L31.70 10.56Q31.70 10.81 31.81 10.93L31.81 10.93L31.81 10.93Q31.92 11.05 32.09 11.05L32.09 11.05L32.42 11.05L32.42 12.24L32.42 12.24Q32.00 12.46 31.43 12.46L31.43 12.46L31.43 12.46Q30.94 12.46 30.60 12.20L30.60 12.20L30.60 12.20Q30.25 11.94 30.13 11.49L30.13 11.49L30.06 11.49L30.06 11.49Q29.71 11.98 29.30 12.22L29.30 12.22L29.30 12.22Q28.88 12.46 28.20 12.46L28.20 12.46ZM28.90 11.06L28.90 11.06Q29.46 11.06 29.73 10.61L29.73 10.61L29.73 10.61Q30.00 10.16 30.00 9.45L30.00 9.45L30.00 9.03L30.00 9.03Q29.15 9.03 28.61 9.30L28.61 9.30L28.61 9.30Q28.07 9.58 28.07 10.23L28.07 10.23L28.07 10.23Q28.07 10.63 28.27 10.84L28.27 10.84L28.27 10.84Q28.48 11.06 28.90 11.06L28.90 11.06ZM40.03 12.46L40.03 12.46Q38.18 12.46 37.19 11.22L37.19 11.22L37.19 11.22Q36.20 9.98 36.20 7.49L36.20 7.49L36.20 7.49Q36.20 5.00 37.19 3.76L37.19 3.76L37.19 3.76Q38.18 2.52 40.03 2.52L40.03 2.52L40.03 2.52Q41.61 2.52 42.58 3.46L42.58 3.46L42.58 3.46Q43.55 4.40 43.55 6.26L43.55 6.26L41.72 6.26L41.72 6.26Q41.72 5.18 41.27 4.62L41.27 4.62L41.27 4.62Q40.81 4.06 40.03 4.06L40.03 4.06L40.03 4.06Q39.05 4.06 38.55 4.86L38.55 4.86L38.55 4.86Q38.05 5.67 38.05 7.14L38.05 7.14L38.05 7.84L38.05 7.84Q38.05 9.31 38.56 10.12L38.56 10.12L38.56 10.12Q39.07 10.92 40.08 10.92L40.08 10.92L40.08 10.92Q40.88 10.92 41.34 10.37L41.34 10.37L41.34 10.37Q41.80 9.81 41.80 8.74L41.80 8.74L43.55 8.74L43.55 8.74Q43.55 10.56 42.59 11.51L42.59 11.51L42.59 11.51Q41.62 12.46 40.03 12.46L40.03 12.46ZM44.77 12.29L44.77 2.17L46.45 2.17L46.45 12.29L44.77 12.29ZM50.72 12.46L50.72 12.46Q49.24 12.46 48.51 11.52L48.51 11.52L48.51 11.52Q47.78 10.58 47.78 8.61L47.78 8.61L47.78 8.61Q47.78 6.64 48.51 5.70L48.51 5.70L48.51 5.70Q49.24 4.76 50.72 4.76L50.72 4.76L50.72 4.76Q52.21 4.76 52.93 5.70L52.93 5.70L52.93 5.70Q53.66 6.64 53.66 8.61L53.66 8.61L53.66 8.61Q53.66 10.58 52.93 11.52L52.93 11.52L52.93 11.52Q52.21 12.46 50.72 12.46L50.72 12.46ZM50.72 11.05L50.72 11.05Q51.35 11.05 51.63 10.51L51.63 10.51L51.63 10.51Q51.91 9.97 51.91 8.88L51.91 8.88L51.91 8.34L51.91 8.34Q51.91 7.25 51.63 6.71L51.63 6.71L51.63 6.71Q51.35 6.17 50.72 6.17L50.72 6.17L50.72 6.17Q50.09 6.17 49.81 6.71L49.81 6.71L49.81 6.71Q49.53 7.25 49.53 8.34L49.53 8.34L49.53 8.88L49.53 8.88Q49.53 9.97 49.81 10.51L49.81 10.51L49.81 10.51Q50.09 11.05 50.72 11.05L50.72 11.05ZM56.95 12.46L56.95 12.46Q56.04 12.46 55.52 11.89L55.52 11.89L55.52 11.89Q54.99 11.33 54.99 10.09L54.99 10.09L54.99 4.93L56.67 4.93L56.67 9.63L56.67 9.63Q56.67 10.33 56.91 10.63L56.91 10.63L56.91 10.63Q57.15 10.93 57.64 10.93L57.64 10.93L57.64 10.93Q58.13 10.93 58.46 10.52L58.46 10.52L58.46 10.52Q58.79 10.11 58.79 9.49L58.79 9.49L58.79 4.93L60.47 4.93L60.47 12.29L59.07 12.29L58.90 11.38L58.81 11.38L58.81 11.38Q58.49 11.86 58.03 12.16L58.03 12.16L58.03 12.16Q57.57 12.46 56.95 12.46L56.95 12.46ZM64.18 12.46L64.18 12.46Q63.06 12.46 62.43 11.50L62.43 11.50L62.43 11.50Q61.81 10.54 61.81 8.60L61.81 8.60L61.81 8.60Q61.81 6.68 62.43 5.72L62.43 5.72L62.43 5.72Q63.06 4.76 64.09 4.76L64.09 4.76L64.09 4.76Q64.65 4.76 65.09 5.00L65.09 5.00L65.09 5.00Q65.53 5.25 65.73 5.68L65.73 5.68L65.80 5.68L65.80 2.17L67.48 2.17L67.48 12.29L66.08 12.29L65.91 11.38L65.84 11.38L65.84 11.38Q65.58 11.91 65.14 12.19L65.14 12.19L65.14 12.19Q64.71 12.46 64.18 12.46L64.18 12.46ZM64.68 10.93L64.68 10.93Q65.27 10.93 65.53 10.42L65.53 10.42L65.53 10.42Q65.80 9.91 65.80 8.88L65.80 8.88L65.80 8.37L65.80 8.37Q65.80 7.34 65.53 6.81L65.53 6.81L65.53 6.81Q65.27 6.29 64.68 6.29L64.68 6.29L64.68 6.29Q64.09 6.29 63.83 6.80L63.83 6.80L63.83 6.80Q63.56 7.31 63.56 8.34L63.56 8.34L63.56 8.88L63.56 8.88Q63.56 9.91 63.83 10.42L63.83 10.42L63.83 10.42Q64.09 10.93 64.68 10.93L64.68 10.93ZM71.44 12.29L74.54 2.69L76.62 2.69L79.72 12.29L77.88 12.29L77.29 10.40L73.75 10.40L73.18 12.29L71.44 12.29ZM74.24 8.81L76.80 8.81L75.84 5.60L75.84 5.60Q75.74 5.29 75.66 4.86L75.66 4.86L75.66 4.86Q75.57 4.42 75.56 4.30L75.56 4.30L75.50 4.30L75.50 4.30Q75.47 4.44 75.39 4.88L75.39 4.88L75.39 4.88Q75.31 5.32 75.22 5.60L75.22 5.60L74.24 8.81ZM80.50 12.29L80.50 4.93L81.90 4.93L82.10 6.01L82.18 6.01L82.18 6.01Q82.36 5.45 82.66 5.10L82.66 5.10L82.66 5.10Q82.95 4.76 83.45 4.76L83.45 4.76L83.45 4.76Q83.72 4.76 83.92 4.81L83.92 4.81L83.92 4.81Q84.11 4.86 84.15 4.87L84.15 4.87L84.15 6.50L83.55 6.50L83.55 6.50Q82.94 6.50 82.56 6.89L82.56 6.89L82.56 6.89Q82.18 7.28 82.18 8.19L82.18 8.19L82.18 12.29L80.50 12.29ZM86.80 12.46L86.80 12.46Q85.88 12.46 85.47 11.89L85.47 11.89L85.47 11.89Q85.06 11.33 85.06 10.49L85.06 10.49L85.06 6.34L84.32 6.34L84.32 4.93L85.06 4.93L85.32 2.86L86.74 2.86L86.74 4.93L87.81 4.93L87.81 6.34L86.74 6.34L86.74 10.44L86.74 10.44Q86.74 10.74 86.90 10.89L86.90 10.89L86.90 10.89Q87.05 11.05 87.33 11.05L87.33 11.05L87.81 11.05L87.81 12.29L87.81 12.29Q87.63 12.36 87.33 12.41L87.33 12.41L87.33 12.41Q87.04 12.46 86.80 12.46L86.80 12.46ZM88.77 3.70L88.77 2.17L90.45 2.17L90.45 3.70L88.77 3.70ZM88.77 12.29L88.77 4.93L90.45 4.93L90.45 12.29L88.77 12.29ZM92.08 12.29L92.08 6.34L91.34 6.34L91.34 4.93L92.08 4.93L92.08 4.03L92.08 4.03Q92.08 3.19 92.48 2.63L92.48 2.63L92.48 2.63Q92.89 2.06 93.81 2.06L93.81 2.06L93.81 2.06Q94.09 2.06 94.45 2.11L94.45 2.11L94.45 2.11Q94.81 2.16 95.03 2.23L95.03 2.23L95.03 3.47L94.35 3.47L94.35 3.47Q94.07 3.47 93.91 3.63L93.91 3.63L93.91 3.63Q93.76 3.78 93.76 4.07L93.76 4.07L93.76 4.93L95.03 4.93L95.03 6.34L93.76 6.34L93.76 12.29L92.08 12.29ZM95.79 3.70L95.79 2.17L97.47 2.17L97.47 3.70L95.79 3.70ZM95.79 12.29L95.79 4.93L97.47 4.93L97.47 12.29L95.79 12.29ZM101.58 12.46L101.58 12.46Q100.14 12.46 99.47 11.53L99.47 11.53L99.47 11.53Q98.80 10.60 98.80 8.61L98.80 8.61L98.80 8.61Q98.80 6.64 99.48 5.70L99.48 5.70L99.48 5.70Q100.16 4.76 101.53 4.76L101.53 4.76L101.53 4.76Q102.75 4.76 103.43 5.48L103.43 5.48L103.43 5.48Q104.10 6.20 104.10 7.70L104.10 7.70L102.38 7.70L102.38 7.70Q102.38 6.17 101.53 6.17L101.53 6.17L101.53 6.17Q101.01 6.17 100.78 6.71L100.78 6.71L100.78 6.71Q100.55 7.25 100.55 8.34L100.55 8.34L100.55 8.88L100.55 8.88Q100.55 9.97 100.79 10.51L100.79 10.51L100.79 10.51Q101.04 11.05 101.58 11.05L101.58 11.05L101.58 11.05Q102.03 11.05 102.24 10.67L102.24 10.67L102.24 10.67Q102.44 10.29 102.44 9.52L102.44 9.52L104.10 9.52L104.10 9.52Q104.10 11.02 103.45 11.74L103.45 11.74L103.45 11.74Q102.79 12.46 101.58 12.46L101.58 12.46ZM105.36 3.70L105.36 2.17L107.04 2.17L107.04 3.70L105.36 3.70ZM105.36 12.29L105.36 4.93L107.04 4.93L107.04 12.29L105.36 12.29ZM109.84 12.46L109.84 12.46Q109.16 12.46 108.58 11.99L108.58 11.99L108.58 11.99Q108.00 11.52 108.00 10.39L108.00 10.39L108.00 10.39Q108.00 8.99 108.95 8.40L108.95 8.40L108.95 8.40Q109.90 7.81 111.65 7.81L111.65 7.81L111.65 7.04L111.65 7.04Q111.65 6.61 111.49 6.37L111.49 6.37L111.49 6.37Q111.33 6.13 110.88 6.13L110.88 6.13L110.88 6.13Q110.42 6.13 110.21 6.36L110.21 6.36L110.21 6.36Q110.00 6.59 110.00 6.90L110.00 6.90L110.00 7.11L108.36 7.11L108.36 7.11Q108.35 7.03 108.35 6.80L108.35 6.80L108.35 6.80Q108.35 5.88 109.03 5.32L109.03 5.32L109.03 5.32Q109.70 4.76 110.84 4.76L110.84 4.76L110.84 4.76Q112.10 4.76 112.72 5.32L112.72 5.32L112.72 5.32Q113.34 5.88 113.34 6.93L113.34 6.93L113.34 10.56L113.34 10.56Q113.34 10.81 113.46 10.93L113.46 10.93L113.46 10.93Q113.57 11.05 113.74 11.05L113.74 11.05L114.07 11.05L114.07 12.24L114.07 12.24Q113.65 12.46 113.08 12.46L113.08 12.46L113.08 12.46Q112.59 12.46 112.25 12.20L112.25 12.20L112.25 12.20Q111.90 11.94 111.78 11.49L111.78 11.49L111.71 11.49L111.71 11.49Q111.36 11.98 110.94 12.22L110.94 12.22L110.94 12.22Q110.53 12.46 109.84 12.46L109.84 12.46ZM110.54 11.06L110.54 11.06Q111.10 11.06 111.38 10.61L111.38 10.61L111.38 10.61Q111.65 10.16 111.65 9.45L111.65 9.45L111.65 9.03L111.65 9.03Q110.80 9.03 110.26 9.30L110.26 9.30L110.26 9.30Q109.72 9.58 109.72 10.23L109.72 10.23L109.72 10.23Q109.72 10.63 109.92 10.84L109.92 10.84L109.92 10.84Q110.12 11.06 110.54 11.06L110.54 11.06ZM114.94 12.29L114.94 2.17L116.62 2.17L116.62 12.29L114.94 12.29ZM121.27 12.29L121.27 2.69L123.06 2.69L123.06 12.29L121.27 12.29ZM124.53 12.29L124.53 4.93L125.93 4.93L126.10 5.84L126.18 5.84L126.18 5.84Q126.50 5.36 126.97 5.06L126.97 5.06L126.97 5.06Q127.43 4.76 128.04 4.76L128.04 4.76L128.04 4.76Q128.95 4.76 129.48 5.33L129.48 5.33L129.48 5.33Q130.00 5.89 130.00 7.13L130.00 7.13L130.00 12.29L128.32 12.29L128.32 7.59L128.32 7.59Q128.32 6.90 128.08 6.59L128.08 6.59L128.08 6.59Q127.83 6.29 127.36 6.29L127.36 6.29L127.36 6.29Q126.87 6.29 126.54 6.71L126.54 6.71L126.54 6.71Q126.21 7.14 126.21 7.76L126.21 7.76L126.21 12.29L124.53 12.29ZM133.38 12.46L133.38 12.46Q132.45 12.46 132.05 11.89L132.05 11.89L132.05 11.89Q131.64 11.33 131.64 10.49L131.64 10.49L131.64 6.34L130.90 6.34L130.90 4.93L131.64 4.93L131.89 2.86L133.32 2.86L133.32 4.93L134.39 4.93L134.39 6.34L133.32 6.34L133.32 10.44L133.32 10.44Q133.32 10.74 133.48 10.89L133.48 10.89L133.48 10.89Q133.63 11.05 133.91 11.05L133.91 11.05L134.39 11.05L134.39 12.29L134.39 12.29Q134.20 12.36 133.91 12.41L133.91 12.41L133.91 12.41Q133.62 12.46 133.38 12.46L133.38 12.46ZM137.91 12.46L137.91 12.46Q136.47 12.46 135.75 11.52L135.75 11.52L135.75 11.52Q135.03 10.57 135.03 8.61L135.03 8.61L135.03 8.61Q135.03 4.76 137.86 4.76L137.86 4.76L137.86 4.76Q139.20 4.76 139.86 5.70L139.86 5.70L139.86 5.70Q140.52 6.64 140.52 8.61L140.52 8.61L140.52 9.03L136.78 9.03L136.78 9.03Q136.79 10.07 137.05 10.58L137.05 10.58L137.05 10.58Q137.31 11.09 137.91 11.09L137.91 11.09L137.91 11.09Q138.35 11.09 138.60 10.72L138.60 10.72L138.60 10.72Q138.85 10.35 138.85 9.69L138.85 9.69L140.52 9.69L140.52 9.69Q140.52 11.06 139.80 11.76L139.80 11.76L139.80 11.76Q139.09 12.46 137.91 12.46L137.91 12.46ZM136.79 7.81L138.75 7.81L138.75 7.81Q138.75 6.13 137.86 6.13L137.86 6.13L137.86 6.13Q137.34 6.13 137.09 6.56L137.09 6.56L137.09 6.56Q136.84 6.99 136.79 7.81L136.79 7.81ZM141.74 12.29L141.74 2.17L143.42 2.17L143.42 12.29L141.74 12.29ZM144.93 3.70L144.93 2.17L146.61 2.17L146.61 3.70L144.93 3.70ZM144.93 12.29L144.93 4.93L146.61 4.93L146.61 12.29L144.93 12.29ZM149.21 14.84L149.21 14.84Q148.53 14.84 148.06 14.36L148.06 14.36L148.06 14.36Q147.59 13.89 147.59 13.15L147.59 13.15L147.59 13.15Q147.59 12.17 148.53 11.65L148.53 11.65L148.53 11.65Q147.94 11.28 147.94 10.54L147.94 10.54L147.94 10.54Q147.94 10.08 148.24 9.75L148.24 9.75L148.24 9.75Q148.54 9.42 149.02 9.25L149.02 9.25L149.02 9.25Q148.12 8.60 148.12 7.27L148.12 7.27L148.12 7.27Q148.12 6.10 148.83 5.43L148.83 5.43L148.83 5.43Q149.53 4.76 150.84 4.76L150.84 4.76L150.84 4.76Q151.54 4.76 152.07 4.97L152.07 4.97L152.07 4.97Q152.45 4.70 152.61 4.33L152.61 4.33L152.61 4.33Q152.78 3.96 152.78 3.70L152.78 3.70L154.17 3.70L154.17 3.70Q154.17 5.21 152.98 5.57L152.98 5.57L152.98 5.57Q153.57 6.23 153.57 7.27L153.57 7.27L153.57 7.27Q153.57 8.43 152.86 9.10L152.86 9.10L152.86 9.10Q152.15 9.77 150.84 9.77L150.84 9.77L150.14 9.77L150.14 9.77Q149.91 9.77 149.77 9.90L149.77 9.90L149.77 9.90Q149.63 10.02 149.63 10.22L149.63 10.22L149.63 10.22Q149.63 10.40 149.76 10.53L149.76 10.53L149.76 10.53Q149.88 10.65 150.07 10.65L150.07 10.65L152.61 10.65L152.61 10.65Q153.33 10.65 153.81 11.18L153.81 11.18L153.81 11.18Q154.29 11.70 154.29 12.57L154.29 12.57L154.29 12.57Q154.29 13.24 153.98 13.76L153.98 13.76L153.98 13.76Q153.66 14.28 153.12 14.56L153.12 14.56L153.12 14.56Q152.57 14.84 151.91 14.84L151.91 14.84L149.21 14.84ZM150.84 8.53L150.84 8.53Q151.35 8.53 151.62 8.20L151.62 8.20L151.62 8.20Q151.89 7.87 151.89 7.27L151.89 7.27L151.89 7.27Q151.89 6.66 151.62 6.33L151.62 6.33L151.62 6.33Q151.35 6.01 150.84 6.01L150.84 6.01L150.84 6.01Q150.33 6.01 150.07 6.33L150.07 6.33L150.07 6.33Q149.80 6.66 149.80 7.27L149.80 7.27L149.80 7.27Q149.80 7.87 150.07 8.20L150.07 8.20L150.07 8.20Q150.33 8.53 150.84 8.53L150.84 8.53ZM149.95 13.57L151.84 13.57L151.84 13.57Q152.17 13.57 152.38 13.38L152.38 13.38L152.38 13.38Q152.60 13.19 152.60 12.88L152.60 12.88L152.60 12.88Q152.60 12.57 152.40 12.39L152.40 12.39L152.40 12.39Q152.21 12.21 151.91 12.21L151.91 12.21L149.95 12.21L149.95 12.21Q149.67 12.21 149.48 12.40L149.48 12.40L149.48 12.40Q149.28 12.60 149.28 12.88L149.28 12.88L149.28 12.88Q149.28 13.19 149.47 13.38L149.47 13.38L149.47 13.38Q149.66 13.57 149.95 13.57L149.95 13.57ZM157.70 12.46L157.70 12.46Q156.25 12.46 155.53 11.52L155.53 11.52L155.53 11.52Q154.81 10.57 154.81 8.61L154.81 8.61L154.81 8.61Q154.81 4.76 157.64 4.76L157.64 4.76L157.64 4.76Q158.98 4.76 159.64 5.70L159.64 5.70L159.64 5.70Q160.30 6.64 160.30 8.61L160.30 8.61L160.30 9.03L156.56 9.03L156.56 9.03Q156.58 10.07 156.84 10.58L156.84 10.58L156.84 10.58Q157.09 11.09 157.70 11.09L157.70 11.09L157.70 11.09Q158.13 11.09 158.38 10.72L158.38 10.72L158.38 10.72Q158.63 10.35 158.63 9.69L158.63 9.69L160.30 9.69L160.30 9.69Q160.30 11.06 159.59 11.76L159.59 11.76L159.59 11.76Q158.87 12.46 157.70 12.46L157.70 12.46ZM156.58 7.81L158.54 7.81L158.54 7.81Q158.54 6.13 157.64 6.13L157.64 6.13L157.64 6.13Q157.12 6.13 156.87 6.56L156.87 6.56L156.87 6.56Q156.62 6.99 156.58 7.81L156.58 7.81ZM161.53 12.29L161.53 4.93L162.93 4.93L163.10 5.84L163.18 5.84L163.18 5.84Q163.51 5.36 163.97 5.06L163.97 5.06L163.97 5.06Q164.43 4.76 165.05 4.76L165.05 4.76L165.05 4.76Q165.96 4.76 166.48 5.33L166.48 5.33L166.48 5.33Q167.01 5.89 167.01 7.13L167.01 7.13L167.01 12.29L165.33 12.29L165.33 7.59L165.33 7.59Q165.33 6.90 165.08 6.59L165.08 6.59L165.08 6.59Q164.84 6.29 164.36 6.29L164.36 6.29L164.36 6.29Q163.87 6.29 163.54 6.71L163.54 6.71L163.54 6.71Q163.21 7.14 163.21 7.76L163.21 7.76L163.21 12.29L161.53 12.29ZM171.14 12.46L171.14 12.46Q169.69 12.46 169.02 11.53L169.02 11.53L169.02 11.53Q168.35 10.60 168.35 8.61L168.35 8.61L168.35 8.61Q168.35 6.64 169.03 5.70L169.03 5.70L169.03 5.70Q169.71 4.76 171.08 4.76L171.08 4.76L171.08 4.76Q172.30 4.76 172.98 5.48L172.98 5.48L172.98 5.48Q173.66 6.20 173.66 7.70L173.66 7.70L171.93 7.70L171.93 7.70Q171.93 6.17 171.08 6.17L171.08 6.17L171.08 6.17Q170.56 6.17 170.33 6.71L170.33 6.71L170.33 6.71Q170.10 7.25 170.10 8.34L170.10 8.34L170.10 8.88L170.10 8.88Q170.10 9.97 170.35 10.51L170.35 10.51L170.35 10.51Q170.59 11.05 171.14 11.05L171.14 11.05L171.14 11.05Q171.58 11.05 171.79 10.67L171.79 10.67L171.79 10.67Q171.99 10.29 171.99 9.52L171.99 9.52L173.66 9.52L173.66 9.52Q173.66 11.02 173.00 11.74L173.00 11.74L173.00 11.74Q172.34 12.46 171.14 12.46L171.14 12.46ZM177.48 12.46L177.48 12.46Q176.04 12.46 175.32 11.52L175.32 11.52L175.32 11.52Q174.59 10.57 174.59 8.61L174.59 8.61L174.59 8.61Q174.59 4.76 177.42 4.76L177.42 4.76L177.42 4.76Q178.77 4.76 179.42 5.70L179.42 5.70L179.42 5.70Q180.08 6.64 180.08 8.61L180.08 8.61L180.08 9.03L176.34 9.03L176.34 9.03Q176.36 10.07 176.62 10.58L176.62 10.58L176.62 10.58Q176.88 11.09 177.48 11.09L177.48 11.09L177.48 11.09Q177.91 11.09 178.16 10.72L178.16 10.72L178.16 10.72Q178.42 10.35 178.42 9.69L178.42 9.69L180.08 9.69L180.08 9.69Q180.08 11.06 179.37 11.76L179.37 11.76L179.37 11.76Q178.65 12.46 177.48 12.46L177.48 12.46ZM176.36 7.81L178.32 7.81L178.32 7.81Q178.32 6.13 177.42 6.13L177.42 6.13L177.42 6.13Q176.90 6.13 176.65 6.56L176.65 6.56L176.65 6.56Q176.40 6.99 176.36 7.81L176.36 7.81Z"></path></g><!----><g data-v-d3f97b9e="" id="d475f7f5-8af3-4d2c-924c-00585b80a29b" transform="matrix(1.1414221157695137,0,0,1.1414221157695137,364.65613536981476,-11.465698853151771)" stroke="none" fill="#ffffff"><switch><g><path d="M89.141 35.617C86.25 22.852 77.844 14.405 68.699 10.364c11.371 10.018 21.846 29.405 8.814 47.069-5.406 7.331-16.217 10.228-20.746 8.184 0 0 7.002-1.487 11.357-5.295 8.469-8.017 11.299-20.932 4.52-32.673a25.839 25.839 0 0 0-3.357-4.575c-.018-.021-.033-.042-.051-.062-4.764-5.683-11.307-9.075-18.337-10.116-9.127-1.715-20.896.515-29.71 8.666C11.58 30.45 8.468 41.953 9.542 51.895c2.989-14.858 14.542-33.622 36.355-31.171 9.053 1.019 16.965 8.932 17.461 13.877 0 0-5.277-8.281-18.365-8.281-.24.004-.747.024-.761.024l-.167.01c-8.51.333-16.783 4.784-21.83 13.526a25.819 25.819 0 0 0-2.284 5.195l-.028.074c-2.539 6.968-2.205 14.33.407 20.938 3.079 8.763 10.896 17.841 22.361 21.397 12.502 3.878 24.02.82 32.092-5.079-14.363 4.837-36.389 4.216-45.173-15.899-3.645-8.35-.749-19.159 3.287-22.061 0 0-4.534 8.71 2.012 20.044 4.482 7.484 12.617 12.658 22.949 12.658.498 0 4.488-.311 5.926-.633l.08-.011c7.303-1.286 13.512-5.256 17.928-10.822 6.05-7.046 10.003-18.356 7.349-30.064z"></path></g></switch></g><!----></svg>